# AST/ASF file generated using VICON BodyLanguage
# -----------------------------------------------
:version 1.10
:name VICON
:units
  mass 1.0
  length 0.45
  angle deg
:documentation
   .ast/.asf automatically generated from VICON data using
   VICON BodyBuilder and BodyLanguage model FoxedUp or BRILLIANT.MOD
:root
   order TX TY TZ RX RY RZ
   axis XYZ
   position 0 0 0  
   orientation 0 0 0 
:bonedata
  begin
     id 1 
     name lhipjoint
     direction 0.577973 -0.728611 0.367523 
     length 2.48544 
     axis 0 0 0  XYZ
  end
  begin
     id 2 
     name lfemur
     direction 0.34202 -0.939693 0  
     length 7.1921  
     axis 0 0 20  XYZ
    dof rx ry rz
    limits (-160.0 20.0)
           (-70.0 70.0)
           (-60.0 70.0)
  end
  begin
     id 3 
     name ltibia
     direction 0.34202 -0.939693 0   
     length 7.71059   
     axis 0 0 20   XYZ
    dof rx
    limits (-10.0 170.0)
  end
  begin
     id 4 
     name lfoot
     direction 0.089538 -0.246004 0.965124   
     length 2.19909   
     axis -90 7.62852e-016 20   XYZ
    dof rx rz
    limits (-45.0 90.0)
           (-70.0 20.0)
  end
  begin
     id 5 
     name ltoes
     direction 1.53544e-011 -4.21829e-011 1   
     length 1.10116   
     axis -90 7.62852e-016 20   XYZ
    dof rx
    limits (-90.0 20.0)
  end
  begin
     id 6 
     name rhipjoint
     direction -0.554414 -0.743062 0.374812   
     length 2.4371  
     axis 0 0 0  XYZ 
  end
  begin
     id 7 
     name rfemur
     direction -0.34202 -0.939693 0   
     length 7.47254   
     axis 0 0 -20   XYZ
    dof rx ry rz
    limits (-160.0 20.0)
           (-70.0 70.0)
           (-70.0 60.0)
  end
  begin
     id 8 
     name rtibia
     direction -0.34202 -0.939693 0   
     length 7.65855   
     axis 0 0 -20   XYZ
    dof rx
    limits (-10.0 170.0)
 end
 begin
     id 9 
     name rfoot
     direction -0.133779 -0.367555 0.92033   
     length 2.43006  
     axis -90 -7.62852e-016 -20   XYZ
    dof rx rz
    limits (-45.0 90.0)
           (-20.0 70.0)
  end
  begin
     id 10 
     name rtoes
     direction -1.53563e-011 -4.21889e-011 1   
     length 1.19625   
     axis -90 -7.62852e-016 -20   XYZ
    dof rx
    limits (-90.0 20.0)
  end
  begin
     id 11 
     name lowerback
     direction 0.0249066 0.998043 -0.0573585   
     length 2.08485   
     axis 0 0 0   XYZ
    dof rx ry rz
    limits (-20.0 45.0)
           (-30.0 30.0)
           (-30.0 30.0)
  end
  begin
     id 12 
     name upperback
     direction 0.0237884 0.999673 0.00943178   
     length 2.08515   
     axis 0 0 0   XYZ
    dof rx ry rz
    limits (-20.0 45.0)
           (-30.0 30.0)
           (-30.0 30.0)
  end
  begin
     id 13 
     name thorax
     direction 0.0106671 0.999301 0.0358174   
     length 2.09037   
     axis 0 0 0   XYZ
    dof rx ry rz
    limits (-20.0 45.0)
           (-30.0 30.0)
           (-30.0 30.0)
  end
  begin
     id 14 
     name lowerneck
     direction -0.0580016 0.987052 0.149546   
     length 1.84454   
     axis 0 0 0   XYZ
    dof rx ry rz
    limits (-20.0 45.0)
           (-30.0 30.0)
           (-30.0 30.0)
  end
  begin
     id 15 
     name upperneck
     direction 0.079456 0.981963 -0.171567   
     length 1.88141   
     axis 0 0 0   XYZ
    dof rx ry rz
    limits (-20.0 45.0)
           (-30.0 30.0)
           (-30.0 30.0)
  end
  begin
     id 16
     name head
     direction 0.0262167 0.9967 -0.0768276  
     length 1.89541  
     axis 0 0 0   XYZ
    dof rx ry rz
    limits (-20.0 45.0)
           (-30.0 30.0)
           (-30.0 30.0)
  end
  begin
     id 17 
     name lclavicle
     direction 0.946135 0.322134 -0.0325326  
     length 3.949  
     axis 0 0 0   XYZ
    dof ry rz
    limits (-20.0 10.0)
           (0.0 20.0)
  end
  begin
     id 18 
     name lhumerus
     direction 1 -4.48964e-011 1.94005e-028   
     length 5.10995   
     axis 180 -30 -90   XYZ
    dof rx ry rz
    limits (-60.0 90.0)
           (-90.0 90.0)
           (-90.0 90.0)
  end
  begin
     id 19
     name lradius
     direction 1 -4.48976e-011 2.87852e-027   
     length 3.21207   
     axis 180 -30 -90   XYZ
    dof rx
    limits (-10.0 170.0)
  end
  begin
     id 20
     name lwrist
     direction 1 -4.48963e-011 1.9975e-027   
     length 1.60604   
     axis 2.96054e-016 90 90   XYZ
    dof ry
    limits (-180.0 0.0)
 end
  begin
     id 21 
     name lhand
     direction 1 -4.48919e-011 4.00227e-027   
     length 0.63349   
     axis -2.5488e-015 90 90   XYZ
    dof rx rz
    limits (-90.0 90.0)
           (-45.0 45.0)
  end
  begin
     id 22 
     name lfingers
     direction 1 -4.49037e-011 7.9652e-027   
     length 0.510736   
     axis -5.0975e-015 90 90   XYZ
    dof rx
    limits (0.0 90.0)
  end
  begin
     id 23
     name lthumb
     direction 0.707107 -6.34922e-011 0.707107   
     length 0.733318   
     axis -90 45 -4.48553e-014   XYZ
    dof rx rz
    limits (-45.0 45.0)
           (-45.0 45.0)
  end
  begin
     id 24 
     name rclavicle
     direction -0.940085 0.328911 -0.0897654   
     length 3.93848  
     axis 0 0 0   XYZ 
    dof ry rz
    limits (-10.0 20.0)
           (-20.0 0.0)
  end
  begin
     id 25 
     name rhumerus
     direction -1 -4.48958e-011 3.02044e-027  
     length 5.25109   
     axis 180 30 90   XYZ
    dof rx ry rz
    limits (-90.0 60.0)
           (-90.0 90.0)
           (-90.0 90.0)
  end
  begin
     id 26 
     name rradius
     direction -1 -4.4897e-011 9.78352e-028   
     length 3.28364   
     axis 180 30 90   XYZ
    dof rx
    limits (-10.0 170.0)
  end
  begin
     id 27 
     name rwrist
     direction -1 -4.48943e-011 1.99918e-027   
     length 1.64182   
     axis 2.96054e-016 -90 -90   XYZ
    dof ry
    limits (-180.0 0.0)
  end
  begin
     id 28
     name rhand
     direction -1 -4.49024e-011 3.98478e-027   
     length 0.599745   
     axis -2.5488e-015 -90 -90   XYZ
    dof rx rz
    limits (-90.0 90.0)
           (-45.0 45.0)
  end
  begin
     id 29
     name rfingers
     direction -1 -4.48914e-011 8.00621e-027   
     length 0.48353   
     axis -5.0975e-015 -90 -90   XYZ
    dof rx
    limits (0.0 90.0)
  end
  begin
     id 30
     name rthumb
     direction -0.707107 -6.34992e-011 0.707107   
     length 0.694255   
     axis -90 -45 4.48553e-014   XYZ
    dof rx rz
    limits (-45.0 45.0)
           (-45.0 45.0)
  end
:hierarchy
  begin
    root lhipjoint rhipjoint lowerback
    lhipjoint lfemur
    lfemur ltibia
    ltibia lfoot
    lfoot ltoes
    rhipjoint rfemur
    rfemur rtibia
    rtibia rfoot
    rfoot rtoes
    lowerback upperback
    upperback thorax
    thorax lowerneck lclavicle rclavicle
    lowerneck upperneck
    upperneck head
    lclavicle lhumerus
    lhumerus lradius
    lradius lwrist
    lwrist lhand lthumb
    lhand lfingers
    rclavicle rhumerus
    rhumerus rradius
    rradius rwrist
    rwrist rhand rthumb
    rhand rfingers
  end

#!OML:ASF E:\CV Data\Top Level 1\Subject 1\Session 1\player.ASF
:FULLY-SPECIFIED
:DEGREES
242
root 15.2522 16.2283 -5.34679 -0.0706191 -61.7253 5.81975
lowerback 5.54959 1.04989 -4.42941
upperback -0.714761 1.0933 0.0222767
thorax -3.9404 0.639336 2.41215
lowerneck -17.0597 5.38522 -6.12553
upperneck 23.5244 7.65161 5.87396
head 9.77242 3.63847 4.06131
rclavicle 4.2689e-014 1.41137e-014
rhumerus -39.015 39.0319 -108.768
rradius 105.282
rwrist 0.761328
rhand -45.3966 38.1677
rfingers 7.12502
rthumb -18.1653 8.99594
lclavicle 4.2689e-014 1.41137e-014
lhumerus -41.9829 -38.8693 113.576
lradius 111.75
lwrist 26.1899
lhand -42.3767 23.2756
lfingers 7.12502
lthumb -15.2581 52.6928
rfemur -47.3484 -12.4665 13.8603
rtibia 47.3884
rfoot -3.16891 -14.8689
rtoes 15.7256
lfemur 0.465288 0.909232 -21.4512
ltibia 30.1792
lfoot -29.522 8.41912
ltoes -13.0623
243
root 15.2657 16.2297 -5.35001 -0.0069574 -61.5444 5.71438
lowerback 5.42796 1.02746 -4.54983
upperback -0.853968 1.05404 -0.075421
thorax -4.01424 0.625167 2.38242
lowerneck -17.108 5.34594 -6.19331
upperneck 23.6729 7.55019 6.13643
head 9.82468 3.6129 4.16109
rclavicle 1.23246e-014 2.44505e-014
rhumerus -38.9686 39.339 -108.944
rradius 105.391
rwrist 0.715867
rhand -45.4349 38.3013
rfingers 7.12502
rthumb -18.2021 9.13297
lclavicle 1.23246e-014 2.44505e-014
lhumerus -41.9157 -38.8432 113.524
lradius 111.913
lwrist 25.383
lhand -42.5436 22.9752
lfingers 7.12502
lthumb -15.4188 52.3801
rfemur -47.2628 -12.5899 13.8556
rtibia 47.2924
rfoot -3.11821 -14.936
rtoes 15.7516
lfemur 0.437566 0.827318 -21.388
ltibia 30.1825
lfoot -29.6017 8.36753
ltoes -12.9352
244
root 15.2776 16.2298 -5.35351 0.0345612 -61.3947 5.63003
lowerback 5.29412 1.00064 -4.60941
upperback -0.974937 1.01137 -0.233898
thorax -4.05955 0.606108 2.25609
lowerneck -17.1769 5.31918 -6.20204
upperneck 23.8077 7.44276 6.42776
head 9.87793 3.59405 4.26144
rclavicle -1.67725e-014 0
rhumerus -38.8112 39.6104 -109.106
rradius 105.499
rwrist 0.762397
rhand -45.4557 38.4434
rfingers 7.12502
rthumb -18.2221 9.2769
lclavicle -1.67725e-014 0
lhumerus -41.7867 -38.8912 113.368
lradius 112.073
lwrist 24.5502
lhand -42.7193 22.6964
lfingers 7.12502
lthumb -15.588 52.0882
rfemur -47.1938 -12.6872 13.8497
rtibia 47.2238
rfoot -3.08093 -15.0007
rtoes 15.7928
lfemur 0.408256 0.802069 -21.3215
ltibia 30.2076
lfoot -29.6911 8.30323
ltoes -12.9089
245
root 15.2878 16.2286 -5.35677 0.0550951 -61.2798 5.56556
lowerback 5.17452 0.971849 -4.69251
upperback -1.10268 0.963799 -0.380074
thorax -4.12048 0.585659 2.15582
lowerneck -17.2294 5.30266 -6.2286
upperneck 23.9426 7.35399 6.71453
head 9.9266 3.58179 4.36484
rclavicle 8.56016e-015 4.26145e-015
rhumerus -38.6304 39.9021 -109.203
rradius 105.609
rwrist 0.936446
rhand -45.4878 38.6012
rfingers 7.12502
rthumb -18.253 9.43763
lclavicle 8.56016e-015 4.26145e-015
lhumerus -41.6245 -38.9505 113.23
lradius 112.232
lwrist 23.7275
lhand -42.939 22.4037
lfingers 7.12502
lthumb -15.7996 51.7789
rfemur -47.1417 -12.7587 13.8439
rtibia 47.1823
rfoot -3.05864 -15.0595
rtoes 15.8496
lfemur 0.380133 0.802375 -21.2618
ltibia 30.2514
lfoot -29.7826 8.24719
ltoes -12.9421
246
root 15.2963 16.2262 -5.35948 0.0500078 -61.1996 5.53484
lowerback 5.05405 0.944625 -4.78161
upperback -1.2345 0.917206 -0.534306
thorax -4.18541 0.56576 2.05035
lowerneck -17.2928 5.29634 -6.24331
upperneck 24.0916 7.27349 7.00984
head 9.98221 3.5753 4.47193
rclavicle -1.78254e-014 -3.06128e-014
rhumerus -38.4058 40.185 -109.236
rradius 105.717
rwrist 1.25077
rhand -45.5078 38.7235
rfingers 7.12502
rthumb -18.2722 9.56171
lclavicle -1.78254e-014 -3.06128e-014
lhumerus -41.4369 -39.0538 113.092
lradius 112.39
lwrist 22.9504
lhand -43.137 22.1438
lfingers 7.12502
lthumb -15.9903 51.5039
rfemur -47.1159 -12.8168 13.835
rtibia 47.1689
rfoot -3.04908 -15.0986
rtoes 15.9126
lfemur 0.347226 0.84482 -21.2146
ltibia 30.3091
lfoot -29.8793 8.1811
ltoes -13.003
247
root 15.3032 16.2228 -5.3615 0.0436171 -61.1631 5.49997
lowerback 4.94585 0.920798 -4.8777
upperback -1.37212 0.8741 -0.675009
thorax -4.26411 0.548276 1.96218
lowerneck -17.3674 5.29964 -6.24428
upperneck 24.262 7.20759 7.2834
head 10.0486 3.57376 4.57298
rclavicle -7.38112e-014 5.96354e-015
rhumerus -38.1447 40.4699 -109.199
rradius 105.817
rwrist 1.68806
rhand -45.5515 38.8498
rfingers 7.12502
rthumb -18.3143 9.69191
lclavicle -7.38112e-014 5.96354e-015
lhumerus -41.2264 -39.1938 112.973
lradius 112.55
lwrist 22.2353
lhand -43.2954 21.9385
lfingers 7.12502
lthumb -16.1428 51.2862
rfemur -47.1042 -12.8433 13.8383
rtibia 47.1818
rfoot -3.0547 -15.1254
rtoes 15.9877
lfemur 0.327066 0.89217 -21.1721
ltibia 30.3727
lfoot -29.9646 8.15382
ltoes -13.0376
